<mxfile type="github" version="12.7.9" host="www.draw.io" modified="2020-03-05T13:03:04.664Z" agent="Mozilla/5.0 (Windows NT 10.0; Win64; x64) AppleWebKit/537.36 (KHTML, like Gecko) Chrome/70.0.3538.102 Safari/537.36 Edge/18.18363" etag="hkN_dmBGjLcnsst8u8sN">
  <diagram id="FCW3SQCGgS2LEOTlX6Vn" name="Page-1">
    <mxGraphModel grid="1" dx="1422" dy="792" gridSize="10" guides="1" tooltips="1" connect="1" arrows="1" fold="1" page="1" pageScale="1" pageWidth="827" pageHeight="1169" math="0" shadow="0">
      <root>
        <mxCell id="0" />
        <mxCell id="1" parent="0" />
        <mxCell id="SnSiwHHTWoDjvqTIoeBE-45" value="onderzoek" parent="1" vertex="1" style="swimlane;fontStyle=0;childLayout=stackLayout;horizontal=1;startSize=26;fillColor=#e0e0e0;horizontalStack=0;resizeParent=1;resizeParentMax=0;resizeLast=0;collapsible=1;marginBottom=0;swimlaneFillColor=#ffffff;align=center;fontSize=14;">
          <mxGeometry as="geometry" height="144" width="160" x="80" y="410" />
        </mxCell>
        <mxCell id="SnSiwHHTWoDjvqTIoeBE-46" value="id int" parent="SnSiwHHTWoDjvqTIoeBE-45" vertex="1" style="shape=partialRectangle;top=0;left=0;right=0;bottom=1;align=left;verticalAlign=middle;fillColor=none;spacingLeft=34;spacingRight=4;overflow=hidden;rotatable=0;points=[[0,0.5],[1,0.5]];portConstraint=eastwest;dropTarget=0;fontStyle=5;fontSize=12;">
          <mxGeometry as="geometry" height="30" width="160" y="26" />
        </mxCell>
        <mxCell id="SnSiwHHTWoDjvqTIoeBE-47" value="PK" parent="SnSiwHHTWoDjvqTIoeBE-46" vertex="1" style="shape=partialRectangle;top=0;left=0;bottom=0;fillColor=none;align=left;verticalAlign=middle;spacingLeft=4;spacingRight=4;overflow=hidden;rotatable=0;points=[];portConstraint=eastwest;part=1;fontSize=12;" connectable="0">
          <mxGeometry as="geometry" height="30" width="30" />
        </mxCell>
        <mxCell id="SnSiwHHTWoDjvqTIoeBE-48" value="type varchar(255)" parent="SnSiwHHTWoDjvqTIoeBE-45" vertex="1" style="shape=partialRectangle;top=0;left=0;right=0;bottom=0;align=left;verticalAlign=top;fillColor=none;spacingLeft=34;spacingRight=4;overflow=hidden;rotatable=0;points=[[0,0.5],[1,0.5]];portConstraint=eastwest;dropTarget=0;fontSize=12;">
          <mxGeometry as="geometry" height="26" width="160" y="56" />
        </mxCell>
        <mxCell id="SnSiwHHTWoDjvqTIoeBE-49" value="" parent="SnSiwHHTWoDjvqTIoeBE-48" vertex="1" style="shape=partialRectangle;top=0;left=0;bottom=0;fillColor=none;align=left;verticalAlign=top;spacingLeft=4;spacingRight=4;overflow=hidden;rotatable=0;points=[];portConstraint=eastwest;part=1;fontSize=12;" connectable="0">
          <mxGeometry as="geometry" height="26" width="30" />
        </mxCell>
        <mxCell id="SnSiwHHTWoDjvqTIoeBE-50" value="afspraak_id int" parent="SnSiwHHTWoDjvqTIoeBE-45" vertex="1" style="shape=partialRectangle;top=0;left=0;right=0;bottom=0;align=left;verticalAlign=top;fillColor=none;spacingLeft=34;spacingRight=4;overflow=hidden;rotatable=0;points=[[0,0.5],[1,0.5]];portConstraint=eastwest;dropTarget=0;fontSize=12;">
          <mxGeometry as="geometry" height="26" width="160" y="82" />
        </mxCell>
        <mxCell id="SnSiwHHTWoDjvqTIoeBE-51" value="FK" parent="SnSiwHHTWoDjvqTIoeBE-50" vertex="1" style="shape=partialRectangle;top=0;left=0;bottom=0;fillColor=none;align=left;verticalAlign=top;spacingLeft=4;spacingRight=4;overflow=hidden;rotatable=0;points=[];portConstraint=eastwest;part=1;fontSize=12;" connectable="0">
          <mxGeometry as="geometry" height="26" width="30" />
        </mxCell>
        <mxCell id="SnSiwHHTWoDjvqTIoeBE-52" value="row 3" parent="SnSiwHHTWoDjvqTIoeBE-45" vertex="1" style="shape=partialRectangle;top=0;left=0;right=0;bottom=0;align=left;verticalAlign=top;fillColor=none;spacingLeft=34;spacingRight=4;overflow=hidden;rotatable=0;points=[[0,0.5],[1,0.5]];portConstraint=eastwest;dropTarget=0;fontSize=12;">
          <mxGeometry as="geometry" height="26" width="160" y="108" />
        </mxCell>
        <mxCell id="SnSiwHHTWoDjvqTIoeBE-53" value="" parent="SnSiwHHTWoDjvqTIoeBE-52" vertex="1" style="shape=partialRectangle;top=0;left=0;bottom=0;fillColor=none;align=left;verticalAlign=top;spacingLeft=4;spacingRight=4;overflow=hidden;rotatable=0;points=[];portConstraint=eastwest;part=1;fontSize=12;" connectable="0">
          <mxGeometry as="geometry" height="26" width="30" />
        </mxCell>
        <mxCell id="SnSiwHHTWoDjvqTIoeBE-54" value="" parent="SnSiwHHTWoDjvqTIoeBE-45" vertex="1" style="shape=partialRectangle;top=0;left=0;right=0;bottom=0;align=left;verticalAlign=top;fillColor=none;spacingLeft=34;spacingRight=4;overflow=hidden;rotatable=0;points=[[0,0.5],[1,0.5]];portConstraint=eastwest;dropTarget=0;fontSize=12;">
          <mxGeometry as="geometry" height="10" width="160" y="134" />
        </mxCell>
        <mxCell id="SnSiwHHTWoDjvqTIoeBE-55" value="" parent="SnSiwHHTWoDjvqTIoeBE-54" vertex="1" style="shape=partialRectangle;top=0;left=0;bottom=0;fillColor=none;align=left;verticalAlign=top;spacingLeft=4;spacingRight=4;overflow=hidden;rotatable=0;points=[];portConstraint=eastwest;part=1;fontSize=12;" connectable="0">
          <mxGeometry as="geometry" height="10" width="30" />
        </mxCell>
        <mxCell id="SnSiwHHTWoDjvqTIoeBE-56" value="afspraak" parent="1" vertex="1" style="swimlane;fontStyle=0;childLayout=stackLayout;horizontal=1;startSize=26;fillColor=#e0e0e0;horizontalStack=0;resizeParent=1;resizeParentMax=0;resizeLast=0;collapsible=1;marginBottom=0;swimlaneFillColor=#ffffff;align=center;fontSize=14;">
          <mxGeometry as="geometry" height="144" width="160" x="80" y="200" />
        </mxCell>
        <mxCell id="SnSiwHHTWoDjvqTIoeBE-57" value="id int" parent="SnSiwHHTWoDjvqTIoeBE-56" vertex="1" style="shape=partialRectangle;top=0;left=0;right=0;bottom=1;align=left;verticalAlign=middle;fillColor=none;spacingLeft=34;spacingRight=4;overflow=hidden;rotatable=0;points=[[0,0.5],[1,0.5]];portConstraint=eastwest;dropTarget=0;fontStyle=5;fontSize=12;">
          <mxGeometry as="geometry" height="30" width="160" y="26" />
        </mxCell>
        <mxCell id="SnSiwHHTWoDjvqTIoeBE-58" value="PK" parent="SnSiwHHTWoDjvqTIoeBE-57" vertex="1" style="shape=partialRectangle;top=0;left=0;bottom=0;fillColor=none;align=left;verticalAlign=middle;spacingLeft=4;spacingRight=4;overflow=hidden;rotatable=0;points=[];portConstraint=eastwest;part=1;fontSize=12;" connectable="0">
          <mxGeometry as="geometry" height="30" width="30" />
        </mxCell>
        <mxCell id="SnSiwHHTWoDjvqTIoeBE-59" value="datum date" parent="SnSiwHHTWoDjvqTIoeBE-56" vertex="1" style="shape=partialRectangle;top=0;left=0;right=0;bottom=0;align=left;verticalAlign=top;fillColor=none;spacingLeft=34;spacingRight=4;overflow=hidden;rotatable=0;points=[[0,0.5],[1,0.5]];portConstraint=eastwest;dropTarget=0;fontSize=12;">
          <mxGeometry as="geometry" height="26" width="160" y="56" />
        </mxCell>
        <mxCell id="SnSiwHHTWoDjvqTIoeBE-60" value="" parent="SnSiwHHTWoDjvqTIoeBE-59" vertex="1" style="shape=partialRectangle;top=0;left=0;bottom=0;fillColor=none;align=left;verticalAlign=top;spacingLeft=4;spacingRight=4;overflow=hidden;rotatable=0;points=[];portConstraint=eastwest;part=1;fontSize=12;" connectable="0">
          <mxGeometry as="geometry" height="26" width="30" />
        </mxCell>
        <mxCell id="SnSiwHHTWoDjvqTIoeBE-61" value="tijd time" parent="SnSiwHHTWoDjvqTIoeBE-56" vertex="1" style="shape=partialRectangle;top=0;left=0;right=0;bottom=0;align=left;verticalAlign=top;fillColor=none;spacingLeft=34;spacingRight=4;overflow=hidden;rotatable=0;points=[[0,0.5],[1,0.5]];portConstraint=eastwest;dropTarget=0;fontSize=12;">
          <mxGeometry as="geometry" height="26" width="160" y="82" />
        </mxCell>
        <mxCell id="SnSiwHHTWoDjvqTIoeBE-62" value="" parent="SnSiwHHTWoDjvqTIoeBE-61" vertex="1" style="shape=partialRectangle;top=0;left=0;bottom=0;fillColor=none;align=left;verticalAlign=top;spacingLeft=4;spacingRight=4;overflow=hidden;rotatable=0;points=[];portConstraint=eastwest;part=1;fontSize=12;" connectable="0">
          <mxGeometry as="geometry" height="26" width="30" />
        </mxCell>
        <mxCell id="SnSiwHHTWoDjvqTIoeBE-63" value="row 3" parent="SnSiwHHTWoDjvqTIoeBE-56" vertex="1" style="shape=partialRectangle;top=0;left=0;right=0;bottom=0;align=left;verticalAlign=top;fillColor=none;spacingLeft=34;spacingRight=4;overflow=hidden;rotatable=0;points=[[0,0.5],[1,0.5]];portConstraint=eastwest;dropTarget=0;fontSize=12;">
          <mxGeometry as="geometry" height="26" width="160" y="108" />
        </mxCell>
        <mxCell id="SnSiwHHTWoDjvqTIoeBE-64" value="" parent="SnSiwHHTWoDjvqTIoeBE-63" vertex="1" style="shape=partialRectangle;top=0;left=0;bottom=0;fillColor=none;align=left;verticalAlign=top;spacingLeft=4;spacingRight=4;overflow=hidden;rotatable=0;points=[];portConstraint=eastwest;part=1;fontSize=12;" connectable="0">
          <mxGeometry as="geometry" height="26" width="30" />
        </mxCell>
        <mxCell id="SnSiwHHTWoDjvqTIoeBE-65" value="" parent="SnSiwHHTWoDjvqTIoeBE-56" vertex="1" style="shape=partialRectangle;top=0;left=0;right=0;bottom=0;align=left;verticalAlign=top;fillColor=none;spacingLeft=34;spacingRight=4;overflow=hidden;rotatable=0;points=[[0,0.5],[1,0.5]];portConstraint=eastwest;dropTarget=0;fontSize=12;">
          <mxGeometry as="geometry" height="10" width="160" y="134" />
        </mxCell>
        <mxCell id="SnSiwHHTWoDjvqTIoeBE-66" value="" parent="SnSiwHHTWoDjvqTIoeBE-65" vertex="1" style="shape=partialRectangle;top=0;left=0;bottom=0;fillColor=none;align=left;verticalAlign=top;spacingLeft=4;spacingRight=4;overflow=hidden;rotatable=0;points=[];portConstraint=eastwest;part=1;fontSize=12;" connectable="0">
          <mxGeometry as="geometry" height="10" width="30" />
        </mxCell>
        <mxCell id="SnSiwHHTWoDjvqTIoeBE-86" value="persoon" parent="1" vertex="1" style="swimlane;fontStyle=0;childLayout=stackLayout;horizontal=1;startSize=26;fillColor=#e0e0e0;horizontalStack=0;resizeParent=1;resizeParentMax=0;resizeLast=0;collapsible=1;marginBottom=0;swimlaneFillColor=#ffffff;align=center;fontSize=14;">
          <mxGeometry as="geometry" height="290" width="240" x="360" y="200" />
        </mxCell>
        <mxCell id="SnSiwHHTWoDjvqTIoeBE-87" value="id int" parent="SnSiwHHTWoDjvqTIoeBE-86" vertex="1" style="shape=partialRectangle;top=0;left=0;right=0;bottom=1;align=left;verticalAlign=middle;fillColor=none;spacingLeft=34;spacingRight=4;overflow=hidden;rotatable=0;points=[[0,0.5],[1,0.5]];portConstraint=eastwest;dropTarget=0;fontStyle=5;fontSize=12;">
          <mxGeometry as="geometry" height="30" width="240" y="26" />
        </mxCell>
        <mxCell id="SnSiwHHTWoDjvqTIoeBE-88" value="PK" parent="SnSiwHHTWoDjvqTIoeBE-87" vertex="1" style="shape=partialRectangle;top=0;left=0;bottom=0;fillColor=none;align=left;verticalAlign=middle;spacingLeft=4;spacingRight=4;overflow=hidden;rotatable=0;points=[];portConstraint=eastwest;part=1;fontSize=12;" connectable="0">
          <mxGeometry as="geometry" height="30" width="30" />
        </mxCell>
        <mxCell id="SnSiwHHTWoDjvqTIoeBE-89" value="voornaam varchar(255)" parent="SnSiwHHTWoDjvqTIoeBE-86" vertex="1" style="shape=partialRectangle;top=0;left=0;right=0;bottom=0;align=left;verticalAlign=top;fillColor=none;spacingLeft=34;spacingRight=4;overflow=hidden;rotatable=0;points=[[0,0.5],[1,0.5]];portConstraint=eastwest;dropTarget=0;fontSize=12;">
          <mxGeometry as="geometry" height="26" width="240" y="56" />
        </mxCell>
        <mxCell id="SnSiwHHTWoDjvqTIoeBE-90" value="" parent="SnSiwHHTWoDjvqTIoeBE-89" vertex="1" style="shape=partialRectangle;top=0;left=0;bottom=0;fillColor=none;align=left;verticalAlign=top;spacingLeft=4;spacingRight=4;overflow=hidden;rotatable=0;points=[];portConstraint=eastwest;part=1;fontSize=12;" connectable="0">
          <mxGeometry as="geometry" height="26" width="30" />
        </mxCell>
        <mxCell id="SnSiwHHTWoDjvqTIoeBE-91" value="achternaam varchar(255) " parent="SnSiwHHTWoDjvqTIoeBE-86" vertex="1" style="shape=partialRectangle;top=0;left=0;right=0;bottom=0;align=left;verticalAlign=top;fillColor=none;spacingLeft=34;spacingRight=4;overflow=hidden;rotatable=0;points=[[0,0.5],[1,0.5]];portConstraint=eastwest;dropTarget=0;fontSize=12;">
          <mxGeometry as="geometry" height="26" width="240" y="82" />
        </mxCell>
        <mxCell id="SnSiwHHTWoDjvqTIoeBE-92" value="" parent="SnSiwHHTWoDjvqTIoeBE-91" vertex="1" style="shape=partialRectangle;top=0;left=0;bottom=0;fillColor=none;align=left;verticalAlign=top;spacingLeft=4;spacingRight=4;overflow=hidden;rotatable=0;points=[];portConstraint=eastwest;part=1;fontSize=12;" connectable="0">
          <mxGeometry as="geometry" height="26" width="30" />
        </mxCell>
        <mxCell id="SnSiwHHTWoDjvqTIoeBE-95" value="straatnaam varchar(255)" parent="SnSiwHHTWoDjvqTIoeBE-86" vertex="1" style="shape=partialRectangle;top=0;left=0;right=0;bottom=0;align=left;verticalAlign=top;fillColor=none;spacingLeft=34;spacingRight=4;overflow=hidden;rotatable=0;points=[[0,0.5],[1,0.5]];portConstraint=eastwest;dropTarget=0;fontSize=12;">
          <mxGeometry as="geometry" height="26" width="240" y="108" />
        </mxCell>
        <mxCell id="SnSiwHHTWoDjvqTIoeBE-96" value="" parent="SnSiwHHTWoDjvqTIoeBE-95" vertex="1" style="shape=partialRectangle;top=0;left=0;bottom=0;fillColor=none;align=left;verticalAlign=top;spacingLeft=4;spacingRight=4;overflow=hidden;rotatable=0;points=[];portConstraint=eastwest;part=1;fontSize=12;" connectable="0">
          <mxGeometry as="geometry" height="26" width="30" />
        </mxCell>
        <mxCell id="SnSiwHHTWoDjvqTIoeBE-97" value="huisnummer varchar(255) " parent="SnSiwHHTWoDjvqTIoeBE-86" vertex="1" style="shape=partialRectangle;top=0;left=0;right=0;bottom=0;align=left;verticalAlign=top;fillColor=none;spacingLeft=34;spacingRight=4;overflow=hidden;rotatable=0;points=[[0,0.5],[1,0.5]];portConstraint=eastwest;dropTarget=0;fontSize=12;">
          <mxGeometry as="geometry" height="26" width="240" y="134" />
        </mxCell>
        <mxCell id="SnSiwHHTWoDjvqTIoeBE-98" value="" parent="SnSiwHHTWoDjvqTIoeBE-97" vertex="1" style="shape=partialRectangle;top=0;left=0;bottom=0;fillColor=none;align=left;verticalAlign=top;spacingLeft=4;spacingRight=4;overflow=hidden;rotatable=0;points=[];portConstraint=eastwest;part=1;fontSize=12;" connectable="0">
          <mxGeometry as="geometry" height="26" width="30" />
        </mxCell>
        <mxCell id="SnSiwHHTWoDjvqTIoeBE-99" value="postcode varchar(255)" parent="SnSiwHHTWoDjvqTIoeBE-86" vertex="1" style="shape=partialRectangle;top=0;left=0;right=0;bottom=0;align=left;verticalAlign=top;fillColor=none;spacingLeft=34;spacingRight=4;overflow=hidden;rotatable=0;points=[[0,0.5],[1,0.5]];portConstraint=eastwest;dropTarget=0;fontSize=12;">
          <mxGeometry as="geometry" height="26" width="240" y="160" />
        </mxCell>
        <mxCell id="SnSiwHHTWoDjvqTIoeBE-100" value="" parent="SnSiwHHTWoDjvqTIoeBE-99" vertex="1" style="shape=partialRectangle;top=0;left=0;bottom=0;fillColor=none;align=left;verticalAlign=top;spacingLeft=4;spacingRight=4;overflow=hidden;rotatable=0;points=[];portConstraint=eastwest;part=1;fontSize=12;" connectable="0">
          <mxGeometry as="geometry" height="26" width="30" />
        </mxCell>
        <mxCell id="SnSiwHHTWoDjvqTIoeBE-101" value="woonplaats varchar(255)" parent="SnSiwHHTWoDjvqTIoeBE-86" vertex="1" style="shape=partialRectangle;top=0;left=0;right=0;bottom=0;align=left;verticalAlign=top;fillColor=none;spacingLeft=34;spacingRight=4;overflow=hidden;rotatable=0;points=[[0,0.5],[1,0.5]];portConstraint=eastwest;dropTarget=0;fontSize=12;">
          <mxGeometry as="geometry" height="26" width="240" y="186" />
        </mxCell>
        <mxCell id="SnSiwHHTWoDjvqTIoeBE-102" value="" parent="SnSiwHHTWoDjvqTIoeBE-101" vertex="1" style="shape=partialRectangle;top=0;left=0;bottom=0;fillColor=none;align=left;verticalAlign=top;spacingLeft=4;spacingRight=4;overflow=hidden;rotatable=0;points=[];portConstraint=eastwest;part=1;fontSize=12;" connectable="0">
          <mxGeometry as="geometry" height="26" width="30" />
        </mxCell>
        <mxCell id="SnSiwHHTWoDjvqTIoeBE-103" value="behaalde diploma&#39;s varchar(255) NA" parent="SnSiwHHTWoDjvqTIoeBE-86" vertex="1" style="shape=partialRectangle;top=0;left=0;right=0;bottom=0;align=left;verticalAlign=top;fillColor=none;spacingLeft=34;spacingRight=4;overflow=hidden;rotatable=0;points=[[0,0.5],[1,0.5]];portConstraint=eastwest;dropTarget=0;fontSize=12;">
          <mxGeometry as="geometry" height="26" width="240" y="212" />
        </mxCell>
        <mxCell id="SnSiwHHTWoDjvqTIoeBE-104" value="" parent="SnSiwHHTWoDjvqTIoeBE-103" vertex="1" style="shape=partialRectangle;top=0;left=0;bottom=0;fillColor=none;align=left;verticalAlign=top;spacingLeft=4;spacingRight=4;overflow=hidden;rotatable=0;points=[];portConstraint=eastwest;part=1;fontSize=12;" connectable="0">
          <mxGeometry as="geometry" height="26" width="30" />
        </mxCell>
        <mxCell id="SnSiwHHTWoDjvqTIoeBE-41" value="geboortedatum datetime NA" parent="SnSiwHHTWoDjvqTIoeBE-86" vertex="1" style="shape=partialRectangle;top=0;left=0;right=0;bottom=0;align=left;verticalAlign=top;fillColor=none;spacingLeft=34;spacingRight=4;overflow=hidden;rotatable=0;points=[[0,0.5],[1,0.5]];portConstraint=eastwest;dropTarget=0;fontSize=12;">
          <mxGeometry as="geometry" height="26" width="240" y="238" />
        </mxCell>
        <mxCell id="SnSiwHHTWoDjvqTIoeBE-42" value="" parent="SnSiwHHTWoDjvqTIoeBE-41" vertex="1" style="shape=partialRectangle;top=0;left=0;bottom=0;fillColor=none;align=left;verticalAlign=top;spacingLeft=4;spacingRight=4;overflow=hidden;rotatable=0;points=[];portConstraint=eastwest;part=1;fontSize=12;" connectable="0">
          <mxGeometry as="geometry" height="26" width="30" />
        </mxCell>
        <mxCell id="SnSiwHHTWoDjvqTIoeBE-105" value="rol varchar(255) NA" parent="SnSiwHHTWoDjvqTIoeBE-86" vertex="1" style="shape=partialRectangle;top=0;left=0;right=0;bottom=0;align=left;verticalAlign=top;fillColor=none;spacingLeft=34;spacingRight=4;overflow=hidden;rotatable=0;points=[[0,0.5],[1,0.5]];portConstraint=eastwest;dropTarget=0;fontSize=12;">
          <mxGeometry as="geometry" height="26" width="240" y="264" />
        </mxCell>
        <mxCell id="SnSiwHHTWoDjvqTIoeBE-106" value="" parent="SnSiwHHTWoDjvqTIoeBE-105" vertex="1" style="shape=partialRectangle;top=0;left=0;bottom=0;fillColor=none;align=left;verticalAlign=top;spacingLeft=4;spacingRight=4;overflow=hidden;rotatable=0;points=[];portConstraint=eastwest;part=1;fontSize=12;" connectable="0">
          <mxGeometry as="geometry" height="26" width="30" />
        </mxCell>
        <mxCell id="YQ2CcwDJQVbbo8NFonxo-4" parent="1" style="edgeStyle=orthogonalEdgeStyle;rounded=0;orthogonalLoop=1;jettySize=auto;html=1;exitX=0;exitY=0.5;exitDx=0;exitDy=0;entryX=0;entryY=0.5;entryDx=0;entryDy=0;dashed=1;endArrow=ERone;endFill=0;startArrow=ERoneToMany;startFill=0;" edge="1" source="SnSiwHHTWoDjvqTIoeBE-50" target="SnSiwHHTWoDjvqTIoeBE-57">
          <mxGeometry as="geometry" relative="1">
            <Array as="points">
              <mxPoint x="40" y="505" />
              <mxPoint x="40" y="241" />
            </Array>
          </mxGeometry>
        </mxCell>
      </root>
    </mxGraphModel>
  </diagram>
</mxfile>
